<svg xmlns="http://www.w3.org/2000/svg" xmlns:xlink="http://www.w3.org/1999/xlink" width="100" height="100" viewBox="0 0 100 100"><g><g transform="translate(50 50) scale(-0.69 0.69) rotate(0) translate(-50 -50)" style="fill:#FFFFFF"><svg fill="#FFFFFF" xmlns="http://www.w3.org/2000/svg" xmlns:xlink="http://www.w3.org/1999/xlink" version="1.1" x="0px" y="0px" viewBox="0 0 64 64" style="enable-background:new 0 0 64 64;" xml:space="preserve"><g><path d="M29,1v7c0,1.302,0.839,2.402,2,2.816V26c0,12.411-9.882,22.551-22.191,22.979C8.39,47.829,7.294,47,6,47H1v16h5   c1.302,0,2.402-0.839,2.816-2H20c22.607,0,41-18.393,41-41v-9.184c1.161-0.414,2-1.514,2-2.816V1H29z M58.975,21H33v-4h26v3   C59,20.335,58.983,20.667,58.975,21z M33,15v-4h26v4H33z M19,59h-2v-9.683c0.681-0.264,1.349-0.554,2-0.874V59z M11,57v2H9v-8.025   c0.674-0.027,1.341-0.082,2-0.161V55h2v-4.503c0.678-0.138,1.343-0.31,2-0.502V59h-2v-2H11z M7,60c0,0.551-0.449,1-1,1H3V49h3   c0.551,0,1,0.449,1,1V60z M21,58.975V47.346C27.381,43.445,31.88,36.764,32.814,29H54v-2H32.975C32.988,26.668,33,26.335,33,26v-3   h25.873c-0.104,1.354-0.276,2.688-0.515,4H56v2h1.94C53.939,45.865,38.964,58.519,21,58.975z M61,8c0,0.551-0.449,1-1,1H32   c-0.551,0-1-0.449-1-1V3h30V8z"></path><path d="M43,31c-2.757,0-5,2.243-5,5s2.243,5,5,5s5-2.243,5-5S45.757,31,43,31z M43,39c-1.654,0-3-1.346-3-3s1.346-3,3-3   s3,1.346,3,3S44.654,39,43,39z"></path><path d="M36,41c-2.206,0-4,1.794-4,4s1.794,4,4,4s4-1.794,4-4S38.206,41,36,41z M36,47c-1.103,0-2-0.897-2-2s0.897-2,2-2   s2,0.897,2,2S37.103,47,36,47z"></path><path d="M28,48c-1.654,0-3,1.346-3,3s1.346,3,3,3s3-1.346,3-3S29.654,48,28,48z M28,52c-0.551,0-1-0.449-1-1s0.449-1,1-1   s1,0.449,1,1S28.551,52,28,52z"></path><rect x="33" y="5" width="2" height="2"></rect><rect x="37" y="5" width="2" height="2"></rect><rect x="41" y="5" width="2" height="2"></rect><rect x="45" y="5" width="2" height="2"></rect><rect x="49" y="5" width="2" height="2"></rect><rect x="53" y="5" width="2" height="2"></rect><rect x="57" y="5" width="2" height="2"></rect></g></svg></g></g></svg>